<svg id="Layer_1" data-name="Layer 1" xmlns="http://www.w3.org/2000/svg" viewBox="0 0 683 422.22"><defs><style>.cls-1{fill:#bce9df;}.cls-2{fill:#dc5761;}.cls-3{fill:#f2bbfa;}.cls-4,.cls-5{fill:none;}.cls-4{stroke:#f2bbfa;stroke-width:1.3px;}.cls-5{stroke:#dc5761;stroke-width:0.62px;}</style></defs><ellipse class="cls-1" cx="285.93" cy="221.29" rx="113.76" ry="179.83" transform="translate(-20.68 412.9) rotate(-69.74)"/><path class="cls-2" d="M267.36,298.55A240.12,240.12,0,0,1,201,264.79c-14.2-10.38-26.77-22.42-36.58-37.1-6.94-10.38-12-21.56-13.09-34.17-1.58-18.56,5.73-33.11,20.41-44.15,10.71-8.06,23.2-11.72,36.12-14.2,17.22-3.32,34.55-3,51.86-1a229.79,229.79,0,0,1,51.14,12,233,233,0,0,1,49.51,24.46c17.93,11.79,34.26,25.43,46.6,43.24,8.05,11.62,13.89,24.18,14,38.73a46.26,46.26,0,0,1-10.47,30.48c-8.31,10.29-19.37,16.49-31.71,20.57-17.06,5.65-34.64,6.92-52.49,6a221.36,221.36,0,0,1-44.19-6.9C277.17,301.55,272.28,300,267.36,298.55Zm-72.24-68.3a7.23,7.23,0,0,0-.06-1c-2.67-12.12-3.27-24.22.44-36.26.51-1.68-.49-2.29-1.77-2.76-11.07-4.08-22.14-8.14-33.19-12.27-1.87-.7-2.84-.12-3,1.71-.36,4.47-1.1,9-.77,13.4,1,12.89,7,23.84,14.13,34.27a3.29,3.29,0,0,0,2.19,1.26C180.36,229.24,187.61,229.72,195.12,230.25Zm154.62,57.36a3.3,3.3,0,0,0,.61.58c5,3.61,10.21,7.06,15.1,10.87a5.63,5.63,0,0,0,6,1.06c6.6-2.56,13.45-4.69,19.71-7.93a44.93,44.93,0,0,0,19.4-19c1.11-2.07.54-2.81-1.38-3.51q-16.51-6-33-12.11c-1.47-.55-2.18-.28-3,1.12-2.32,4.05-4.41,8.35-7.39,11.89C360.83,276.47,355.26,281.82,349.74,287.61Zm63.91-22.1c.44-1.87.83-3.16,1-4.48a46.23,46.23,0,0,0,.63-5.62c.48-15-5.72-27.58-14.05-39.39a4.47,4.47,0,0,0-2.88-1.53c-4.56-.53-9.14-.86-13.71-1.24-2.47-.2-4.94-.35-7.69-.54.25,1.47.36,2.53.6,3.56a67.45,67.45,0,0,1-.69,32c-.69,2.7.1,3.74,2.46,4.59,9.14,3.28,18.24,6.68,27.35,10ZM159.78,171.74c3.62,1.34,6.31,2.34,9,3.32,8.53,3.11,17.07,6.18,25.58,9.33,3.43,1.28,3.39,1.31,5.07-1.9,1.42-2.7,2.85-5.42,4.53-8a66.17,66.17,0,0,1,15.69-16.59c3-2.21,2.82-2.44-.1-4.49-4.7-3.31-9.29-6.8-14.06-10a5.78,5.78,0,0,0-4.13-.9,102.59,102.59,0,0,0-11.83,3.71c-9.11,3.49-17.2,8.62-23.52,16.14C163.74,165.09,162.06,168.28,159.78,171.74Zm72.27,65.13c2.32-9.63,4.61-18.94,6.74-28.29a2.88,2.88,0,0,0-1.53-2.26c-10.86-4.1-21.77-8.08-32.68-12-3.2-1.16-3.59-.88-4.37,2.45A64.21,64.21,0,0,0,201,229a3.14,3.14,0,0,0,2.88,2.62c8.33,1.47,16.63,3.1,24.94,4.67C230.06,236.53,231.27,236.73,232.05,236.87ZM331.24,241c-5,9.3-9.78,18.09-14.6,27a1,1,0,0,0,.34.38c8.41,4.84,16.81,9.7,25.27,14.44a3.08,3.08,0,0,0,2.61-.18A61.15,61.15,0,0,0,367.68,257c.95-1.93.05-2.55-1.53-3.12-5-1.82-9.94-3.71-14.92-5.55C344.5,245.83,337.76,243.35,331.24,241Zm24.7,3.29v0c4.14,1.53,8.28,3,12.4,4.59,1.7.65,2.53.34,3-1.64a67.84,67.84,0,0,0-.3-33.35c-.42-1.7-1.31-2.21-3-2.5-8.77-1.53-17.52-3.14-26.25-4.91-2.37-.48-3,.13-3.43,2.48-1.43,7.86-3.11,15.66-4.88,23.45-.77,3.36-.95,3.32,2.41,4.55C342.63,239.31,349.28,241.79,355.94,244.24ZM255.28,175.1c-.93-.59-1.94-1.29-3-1.9-7.45-4.33-14.94-8.59-22.36-13a2.88,2.88,0,0,0-3.63.07,68.87,68.87,0,0,0-20.83,22.56c-2.7,4.64-2.59,4.88,2.47,6.45.35.11.68.25,1,.37,9.9,3.76,19.82,7.47,29.7,11.3,2,.76,3,.22,3.72-1.66a71.86,71.86,0,0,1,3.47-7.57C248.85,186.24,252,180.83,255.28,175.1Zm8.2,40.82,0,.09c-5.48-2-11-4-16.44-6.09-1.62-.62-2.56-.34-2.94,1.45-1.7,8.16-3.46,16.3-5.14,24.47-.4,2,.51,3,2.56,3.63q14.2,4.22,28.32,8.73c2,.65,3.18.35,3.93-1.77,2.4-6.77,4.95-13.48,7.38-20.24,1.19-3.3,1.09-3.37-2.2-4.57C273.77,219.74,268.63,217.82,263.48,215.92Zm42.81,15.86v0l-16-5.88c-1.3-.48-2.63-1-3.32.9-2.76,7.51-5.58,15-8.22,22.56a2.74,2.74,0,0,0,1.1,2.42q14.3,6.34,28.71,12.36c.8.34,2.61,0,3-.6,4.32-7.34,8.47-14.77,12.63-22.2,1.07-1.91.21-2.94-1.69-3.62C317.08,235.81,311.69,233.77,306.29,231.78Zm-38.43-20.09v-.05c4.8,1.77,9.63,3.48,14.39,5.35,1.54.61,2.28.38,2.84-1.19,2.57-7.19,5.13-14.38,7.86-21.51.73-1.89.14-2.46-1.49-3.16q-14.24-6.12-28.39-12.45c-1.4-.63-2.25-.71-3.08.74-4,7-8.13,14-12,21-1.66,3-1.32,3.41,2,4.63Zm59.29,21.83a101.17,101.17,0,0,0,5.65-27.59c0-.66-1.07-1.78-1.85-2-3.58-1.19-7.26-2.09-10.86-3.19q-9.4-2.89-18.76-5.92c-1.38-.44-2.37-.51-3,1.15q-3.84,10.65-7.82,21.27c-.59,1.59-.25,2.53,1.37,3.13,3.36,1.25,6.68,2.63,10,3.88C310.19,227.27,318.44,230.3,327.15,233.52ZM295.86,186c-.12.1,0,.06,0,0q6.08-16.15,12.14-32.32c.68-1.84-.53-2.62-2-2.57-4.11.13-8.41-.21-12.29.85-11.34,3.13-19.7,10.8-27.36,19.32-1.45,1.62-.93,2.62,1,3.41,3.4,1.43,6.69,3.13,10.12,4.47C283.41,181.53,289.5,183.69,295.86,186Zm11.68-15,.06,0c-1.9,5.15-3.78,10.31-5.72,15.44-.53,1.41-.53,2.25,1.23,2.79,9.26,2.86,18.49,5.85,27.74,8.77,1.66.52,2.5.13,2.5-1.88a69.41,69.41,0,0,0-3.05-21.78c-2.62-7.94-6.65-14.93-14-19.55-1.91-1.21-2.61-.64-3.27,1.23C311.26,161.11,309.38,166.07,307.54,171.05Zm-69.1,73.28c-.06,11,1.18,21.21,6.07,30.64,2.39,4.59,5.34,8.74,9.69,11.76,3.58,2.49,3.56,2.53,5.09-1.63.13-.34.33-.65.45-1,3.41-9.09,6.8-18.18,10.24-27.26.72-1.89.08-2.79-1.77-3.38-5.65-1.81-11.25-3.8-16.92-5.57C247.2,246.63,243,245.6,238.44,244.33Zm31.27,29.17h0c-1.84,5-3.62,10-5.54,14.92-.82,2.13-.22,2.84,2,3.08a31.81,31.81,0,0,0,14.07-1.61c10.32-3.62,18.33-10.43,25.44-18.49,1.29-1.46.42-2.2-.94-2.79q-13.23-5.72-26.47-11.44c-1.76-.76-2.6-.05-3.19,1.63C273.37,263.73,271.52,268.6,269.71,273.5Zm97.72-67.71L368,205c-7.26-18-19.85-31.42-36.09-42.16-.08.63-.17.84-.11,1,5.56,10.71,7.63,22.17,7.32,34.13-.05,2,1.11,2.63,2.75,3,3.51.73,7,1.54,10.55,2.21C357.39,204.06,362.41,204.9,367.43,205.79Zm-78.78-58.25c-19.19-3-37.4-.57-55.15,8.34,1,.74,1.56,1.2,2.16,1.53,7,4,14,7.81,20.85,11.87,1.87,1.1,2.92.95,4.32-.66a80,80,0,0,1,20.75-17.47C283.88,149.84,286.29,148.73,288.65,147.54Zm-6.23,147.21c10.49,5,47.5-.76,55.11-8.58-6.8-3.85-13.46-7.76-20.26-11.43-4.71-2.56-4.79-2.41-8.37,1.68-.41.47-.86.91-1.31,1.36C300.34,285,292.47,291.32,282.42,294.75Zm-41.73-15.48c-1.46-3.22-3-6-4-8.93a77,77,0,0,1-4-25.19c0-1.78-.56-2.57-2.34-2.85-2.13-.33-4.2-1-6.31-1.45-6.48-1.27-13-2.47-19.58-3.72C205.39,248,229.18,275.65,240.69,279.27Zm153.9-70.48c.12-.29.24-.57.35-.86-11.26-13.83-25.18-24.59-40.18-34.12a54.55,54.55,0,0,0,4.1,5.18,95.2,95.2,0,0,1,15.28,25.6c.36.88,1.29,2.06,2.08,2.17C382.33,207.57,388.46,208.14,394.59,208.79ZM264.91,140.27c-18.25-2.42-35.78-3-53.41.41,4.88,3.86,9.82,7.42,14.89,10.78.73.48,2.23.18,3.21-.19,6-2.29,11.94-5,18.08-7C253,142.58,258.64,141.7,264.91,140.27Zm94.79,162.2.24-.8c-4.55-3.2-9.19-6.29-13.62-9.65-1.91-1.45-3.27-1.27-5.28-.19a77.23,77.23,0,0,1-23,8.25c-3.41.62-6.84,1.17-10.26,1.75A151.78,151.78,0,0,0,359.7,302.47ZM177.59,234.34c-.12.32-.24.63-.35.94a147.84,147.84,0,0,0,38.45,32.09,1.29,1.29,0,0,0-.31-1.05,87,87,0,0,1-17.75-28.45,2.91,2.91,0,0,0-1.84-1.7C189.74,235.47,183.66,234.93,177.59,234.34Z"/><path class="cls-3" d="M271.15,295.8A240.58,240.58,0,0,1,204.76,262c-14.19-10.38-26.76-22.42-36.58-37.11-6.93-10.37-12-21.55-13.09-34.17-1.58-18.55,5.74-33.11,20.42-44.15,10.7-8.05,23.2-11.72,36.11-14.2,17.23-3.31,34.55-3,51.87-1a229.31,229.31,0,0,1,51.13,12,232.72,232.72,0,0,1,49.51,24.45c17.93,11.8,34.27,25.43,46.6,43.24,8.06,11.63,13.89,24.19,14,38.73a46.39,46.39,0,0,1-10.47,30.49C406,290.68,394.93,296.88,382.6,301c-17.07,5.65-34.64,6.91-52.5,6a221.38,221.38,0,0,1-44.18-6.9C281,298.79,276.07,297.23,271.15,295.8Zm-72.24-68.31a6.88,6.88,0,0,0-.07-1c-2.66-12.13-3.27-24.23.44-36.27.52-1.68-.48-2.28-1.77-2.76-11.06-4.08-22.14-8.14-33.19-12.27-1.86-.69-2.83-.11-3,1.72-.35,4.46-1.09,9-.76,13.39,1,12.9,7,23.85,14.12,34.27a3.33,3.33,0,0,0,2.2,1.27C184.14,226.48,191.4,227,198.91,227.49Zm154.61,57.37a3.5,3.5,0,0,0,.61.57c5.05,3.61,10.21,7.07,15.11,10.87a5.61,5.61,0,0,0,6,1.07c6.61-2.56,13.45-4.69,19.71-7.94a45,45,0,0,0,19.41-19c1.1-2.08.53-2.81-1.39-3.51q-16.51-6-33-12.12c-1.48-.55-2.18-.28-3,1.13-2.32,4-4.42,8.35-7.4,11.88C364.62,273.71,359,279.07,353.52,284.86Zm63.92-22.11c.44-1.87.82-3.16,1-4.47a48.53,48.53,0,0,0,.62-5.62c.48-15-5.71-27.58-14-39.4a4.46,4.46,0,0,0-2.88-1.52c-4.56-.53-9.13-.87-13.71-1.24-2.46-.21-4.94-.35-7.68-.55.24,1.48.36,2.54.59,3.57a67.46,67.46,0,0,1-.68,32c-.7,2.7.1,3.73,2.46,4.58,9.13,3.28,18.23,6.68,27.35,10ZM163.57,169l9,3.32c8.52,3.11,17.06,6.18,25.57,9.33,3.44,1.27,3.39,1.3,5.07-1.9a90.41,90.41,0,0,1,4.53-8,66.48,66.48,0,0,1,15.69-16.58c3-2.21,2.82-2.44-.09-4.49-4.71-3.31-9.29-6.8-14.06-10a5.85,5.85,0,0,0-4.13-.9,103.32,103.32,0,0,0-11.83,3.71c-9.12,3.49-17.21,8.62-23.53,16.15C167.53,162.33,165.85,165.52,163.57,169Zm72.26,65.12c2.33-9.62,4.62-18.93,6.74-28.28a2.88,2.88,0,0,0-1.52-2.27q-16.31-6.13-32.68-12c-3.2-1.16-3.59-.88-4.38,2.46a64.28,64.28,0,0,0,.83,32.27,3.13,3.13,0,0,0,2.88,2.63c8.33,1.46,16.62,3.09,24.93,4.66C233.84,233.77,235.05,234,235.83,234.11Zm99.2,4.08c-5,9.3-9.79,18.09-14.6,27a.91.91,0,0,0,.33.37c8.41,4.85,16.81,9.7,25.28,14.45a3.08,3.08,0,0,0,2.61-.19,61.16,61.16,0,0,0,22.82-25.58c.94-1.92,0-2.54-1.53-3.12-5-1.82-9.95-3.7-14.92-5.55Zm24.7,3.3v0c4.13,1.52,8.27,3,12.39,4.58,1.71.65,2.53.35,3-1.63a67.77,67.77,0,0,0-.3-33.36c-.42-1.69-1.31-2.21-2.95-2.5-8.77-1.53-17.53-3.14-26.25-4.9-2.38-.48-3,.13-3.43,2.48-1.43,7.85-3.11,15.66-4.89,23.44-.76,3.37-.94,3.33,2.41,4.55Q349.76,237.78,359.73,241.49ZM259.07,172.34c-.93-.59-1.94-1.28-3-1.9-7.46-4.32-14.95-8.59-22.36-13a2.9,2.9,0,0,0-3.63.07,68.83,68.83,0,0,0-20.84,22.57c-2.7,4.63-2.59,4.87,2.48,6.44.34.11.68.25,1,.38,9.91,3.75,19.83,7.47,29.7,11.29,2,.77,3,.23,3.73-1.65a69.89,69.89,0,0,1,3.47-7.57C252.64,183.48,255.8,178.07,259.07,172.34Zm8.2,40.83,0,.09c-5.49-2-11-4-16.45-6.1-1.62-.61-2.56-.33-2.93,1.46-1.71,8.15-3.47,16.3-5.14,24.46-.41,2,.51,3,2.55,3.64q14.22,4.2,28.33,8.73c2,.64,3.17.34,3.92-1.77,2.41-6.77,5-13.49,7.39-20.25,1.18-3.3,1.08-3.37-2.2-4.57C277.56,217,272.41,215.07,267.27,213.17ZM310.07,229v0q-8-2.94-15.95-5.88c-1.3-.48-2.63-1-3.33.89-2.76,7.52-5.57,15-8.22,22.57a2.72,2.72,0,0,0,1.11,2.42q14.28,6.33,28.71,12.36c.8.33,2.61,0,3-.6,4.32-7.34,8.48-14.78,12.64-22.21,1.06-1.9.2-2.94-1.69-3.61C320.86,233.05,315.47,231,310.07,229Zm-38.43-20.1,0-.05c4.8,1.78,9.62,3.48,14.38,5.36,1.54.6,2.29.37,2.85-1.19,2.56-7.19,5.12-14.39,7.86-21.51.72-1.89.13-2.47-1.5-3.17q-14.24-6.1-28.38-12.44c-1.4-.63-2.26-.72-3.09.73-4,7-8.13,14-12,21-1.66,3-1.33,3.42,2,4.63Zm59.3,21.83a101.86,101.86,0,0,0,5.65-27.58c0-.66-1.07-1.79-1.86-2.05-3.58-1.18-7.25-2.08-10.86-3.19q-9.4-2.88-18.76-5.91c-1.38-.45-2.36-.52-3,1.14q-3.84,10.67-7.81,21.28c-.6,1.59-.25,2.52,1.36,3.12,3.36,1.26,6.68,2.63,10.05,3.88C314,224.52,322.22,227.54,330.94,230.76Zm-31.29-47.48c-.13.11,0,.06,0,0q6.09-16.15,12.14-32.31c.69-1.84-.52-2.63-2-2.58-4.11.13-8.4-.21-12.28.86-11.35,3.12-19.71,10.8-27.36,19.32-1.46,1.61-.93,2.61,1,3.4,3.39,1.43,6.68,3.13,10.11,4.47C287.19,178.78,293.28,180.93,299.65,183.28Zm11.67-15,.07,0c-1.9,5.15-3.78,10.31-5.72,15.45-.53,1.41-.54,2.25,1.22,2.79,9.27,2.86,18.5,5.84,27.75,8.77,1.65.52,2.5.13,2.49-1.88a69.18,69.18,0,0,0-3.05-21.79c-2.61-7.93-6.64-14.92-14-19.55-1.92-1.2-2.62-.63-3.28,1.24C315.05,158.35,313.16,163.32,311.32,168.3Zm-69.09,73.28c-.07,11,1.17,21.2,6.07,30.64,2.38,4.59,5.34,8.74,9.68,11.75,3.59,2.5,3.56,2.53,5.1-1.63.12-.33.32-.64.45-1,3.41-9.08,6.79-18.18,10.23-27.25.72-1.9.08-2.8-1.76-3.39-5.66-1.8-11.26-3.8-16.92-5.56C251,243.88,246.81,242.84,242.23,241.58Zm31.27,29.16h0c-1.84,5-3.62,10-5.54,14.92-.83,2.14-.22,2.85,2,3.09a31.85,31.85,0,0,0,14.07-1.61c10.32-3.63,18.33-10.44,25.43-18.49,1.29-1.46.43-2.21-.93-2.79l-26.47-11.44c-1.77-.77-2.61-.05-3.2,1.63C277.15,261,275.3,265.85,273.5,270.74ZM371.21,203l.54-.79c-7.27-18-19.86-31.42-36.1-42.16-.07.63-.17.84-.1,1,5.55,10.71,7.63,22.17,7.32,34.12-.05,2,1.11,2.64,2.74,3,3.52.73,7,1.55,10.55,2.21C361.17,201.31,366.2,202.15,371.21,203Zm-78.78-58.26c-19.18-2.95-37.39-.57-55.14,8.34,1,.75,1.56,1.2,2.15,1.54,7,4,14,7.8,20.86,11.87,1.86,1.1,2.91.94,4.32-.67a80.22,80.22,0,0,1,20.75-17.47C287.66,147.09,290.07,146,292.43,144.78ZM286.21,292c10.49,5,47.49-.77,55.1-8.58-6.79-3.86-13.46-7.76-20.25-11.44-4.72-2.55-4.79-2.41-8.37,1.68-.42.48-.87.92-1.31,1.36C304.12,282.24,296.25,288.57,286.21,292Zm-41.73-15.49c-1.47-3.22-3-6-4-8.93a76.9,76.9,0,0,1-4-25.18c0-1.78-.56-2.58-2.35-2.86-2.13-.32-4.19-1-6.31-1.44-6.48-1.27-13-2.48-19.58-3.73C209.17,245.28,233,272.89,244.48,276.51ZM398.38,206c.11-.28.23-.57.35-.85-11.27-13.84-25.19-24.59-40.19-34.12a56.06,56.06,0,0,0,4.1,5.17,95.1,95.1,0,0,1,15.28,25.6c.36.89,1.29,2.07,2.08,2.17C386.11,204.81,392.25,205.39,398.38,206ZM268.69,137.52c-18.25-2.43-35.78-3-53.4.4,4.87,3.86,9.81,7.43,14.89,10.78.72.48,2.23.19,3.2-.18,6.05-2.3,11.94-5,18.09-7C256.81,139.82,262.42,138.94,268.69,137.52Zm94.79,162.2.24-.81c-4.55-3.19-9.18-6.28-13.61-9.64-1.91-1.45-3.28-1.28-5.29-.19a77.13,77.13,0,0,1-23,8.25c-3.41.61-6.83,1.17-10.25,1.75A152.22,152.22,0,0,0,363.48,299.72Zm-182.1-68.13-.36.94a147.77,147.77,0,0,0,38.45,32.08,1.29,1.29,0,0,0-.31-1.05,87.11,87.11,0,0,1-17.74-28.44,3,3,0,0,0-1.84-1.7C193.52,232.71,187.45,232.17,181.38,231.59Z"/><path class="cls-2" d="M548.91,175.82s10.47,24.21,16.58,30.32,30.31,16.58,30.31,16.58-24.2,10.47-30.31,16.58-16.58,30.32-16.58,30.32-10.48-24.21-16.59-30.32S502,222.72,502,222.72s24.21-10.47,30.31-16.58S548.91,175.82,548.91,175.82Z"/><path class="cls-4" d="M548.91,195.69s6,13.95,9.55,17.47,17.47,9.56,17.47,9.56-13.95,6-17.47,9.55-9.55,17.48-9.55,17.48-6-14-9.56-17.48-17.47-9.55-17.47-9.55,14-6,17.47-9.56S548.91,195.69,548.91,195.69Z"/><path class="cls-3" d="M485.86,134.6s5,11.48,7.87,14.38,14.38,7.87,14.38,7.87-11.48,5-14.38,7.86-7.87,14.38-7.87,14.38-5-11.48-7.86-14.38-14.38-7.86-14.38-7.86,11.48-5,14.38-7.87S485.86,134.6,485.86,134.6Z"/><path class="cls-5" d="M485.86,144s2.87,6.62,4.54,8.29,8.29,4.54,8.29,4.54-6.62,2.86-8.29,4.53-4.54,8.29-4.54,8.29-2.86-6.62-4.53-8.29-8.29-4.53-8.29-4.53,6.62-2.87,8.29-4.54S485.86,144,485.86,144Z"/></svg>