<svg id="Layer_1" data-name="Layer 1" xmlns="http://www.w3.org/2000/svg" viewBox="0 0 1005.75 673.05"><defs><style>.cls-1{fill:#bce9df;}.cls-2,.cls-4,.cls-6{fill:none;}.cls-2,.cls-6{stroke:#dc5761;}.cls-2{stroke-width:1.27px;}.cls-3{fill:#dc5761;}.cls-4{stroke:#bce9df;stroke-width:0.46px;}.cls-5{fill:#f2bbfa;}.cls-6{stroke-width:0.6px;}.cls-7{font-size:61.69px;font-family:Dystopian-Bold, Dystopian;font-weight:700;}.cls-7,.cls-8{fill:#002be8;}</style></defs><path class="cls-1" d="M179.78,172.9s10.27,23.74,16.26,29.73,29.73,16.26,29.73,16.26S202,229.16,196,235.15s-16.26,29.73-16.26,29.73-10.27-23.74-16.26-29.73-29.74-16.26-29.74-16.26,23.75-10.27,29.74-16.26S179.78,172.9,179.78,172.9Z"/><path class="cls-2" d="M179.78,192.38s5.92,13.69,9.37,17.14,17.13,9.37,17.13,9.37-13.68,5.92-17.13,9.37-9.37,17.14-9.37,17.14-5.92-13.69-9.37-17.14-17.14-9.37-17.14-9.37S167,213,170.41,209.52,179.78,192.38,179.78,192.38Z"/><path class="cls-3" d="M884.85,400.09s3.72,8.61,5.89,10.78,10.77,5.89,10.77,5.89-8.6,3.72-10.77,5.89-5.89,10.77-5.89,10.77-3.72-8.6-5.89-10.77-10.77-5.89-10.77-5.89,8.6-3.72,10.77-5.89S884.85,400.09,884.85,400.09Z"/><path class="cls-4" d="M884.85,407.15s2.14,5,3.39,6.21,6.21,3.4,6.21,3.4-5,2.14-6.21,3.39-3.39,6.21-3.39,6.21-2.15-5-3.4-6.21-6.2-3.39-6.2-3.39,5-2.15,6.2-3.4S884.85,407.15,884.85,407.15Z"/><path class="cls-5" d="M210.21,107.87s4.87,11.26,7.72,14.11,14.1,7.71,14.1,7.71-11.26,4.87-14.1,7.71-7.72,14.11-7.72,14.11-4.87-11.26-7.71-14.11-14.11-7.71-14.11-7.71,11.27-4.87,14.11-7.71S210.21,107.87,210.21,107.87Z"/><path class="cls-6" d="M210.21,117.12s2.81,6.49,4.45,8.12,8.12,4.45,8.12,4.45-6.49,2.81-8.12,4.45-4.45,8.12-4.45,8.12-2.81-6.49-4.44-8.12-8.13-4.45-8.13-4.45,6.49-2.81,8.13-4.45S210.21,117.12,210.21,117.12Z"/><path class="cls-3" d="M426,180c-110.6,0-200.26,89.65-200.26,200.25S315.43,580.52,426,580.52s200.25-89.66,200.25-200.26S536.63,180,426,180Zm-1.41,352.71a151.05,151.05,0,1,1,151-151A151.05,151.05,0,0,1,424.62,532.72Z"/><ellipse class="cls-5" cx="672.23" cy="380.26" rx="176.36" ry="111.56" transform="translate(-54.76 119.53) rotate(-9.77)"/><text class="cls-7" transform="translate(545.36 419.54) rotate(-8.27)">Mooned</text><path class="cls-8" d="M699.41,276.24c70.5,0,127.4,30.09,135.31,76.06,9.52,55.32-55.51,112.69-145.25,128.13a262.49,262.49,0,0,1-44.42,3.86c-70.5,0-127.4-30.09-135.31-76.06C500.22,352.91,565.25,295.54,655,280.09a262.46,262.46,0,0,1,44.42-3.85m0-1.29h0a264.15,264.15,0,0,0-44.64,3.87c-43.63,7.51-82.87,25.06-110.48,49.42-27.78,24.51-40.5,53-35.82,80.21,3.91,22.71,19.41,42.14,44.83,56.17,24.46,13.52,57.05,21,91.75,21a264.17,264.17,0,0,0,44.64-3.88c43.63-7.51,82.87-25.06,110.48-49.42,27.78-24.5,40.5-53,35.82-80.2-3.91-22.71-19.41-42.14-44.83-56.18-24.47-13.51-57-20.95-91.75-20.95Z"/></svg>