<svg id="Layer_1" data-name="Layer 1" xmlns="http://www.w3.org/2000/svg" viewBox="0 0 119.05 119.01"><defs><style>.cls-1{fill:#f2bbfa;}.cls-2{fill:none;stroke:#01015b;stroke-miterlimit:10;stroke-width:0.67px;}</style></defs><path class="cls-1" d="M113.5,61.58a2.39,2.39,0,0,1,0-3.52c1.93-2.43,3.66-5,5.57-7.69-2.91-2.17-5.55-4.19-8.26-6.12a1.54,1.54,0,0,1-.67-2.08c1-2.81,1.79-5.66,2.75-8.47.35-1,.11-1.48-.92-1.8-2.83-.9-5.62-1.92-8.45-2.81a1.57,1.57,0,0,1-1.27-1.79c0-2.91-.06-5.83,0-8.74,0-1.27-.44-1.6-1.63-1.58-2.81.05-5.63-.08-8.44,0a1.81,1.81,0,0,1-2.11-1.51c-.78-2.65-1.79-5.22-2.54-7.88-.4-1.43-1-1.63-2.36-1.17-2.4.84-4.89,1.46-7.28,2.35a2.4,2.4,0,0,1-3.35-1.09C72.83,5.06,70.9,2.61,69,0c-.59.38-1,.65-1.43.94C65.2,2.65,62.8,4.31,60.46,6a1.38,1.38,0,0,1-1.93,0c-2.12-1.59-4.29-3.12-6.45-4.66C51.42.92,50.74.49,50,0c-2,2.66-3.89,5.12-5.65,7.69a2.26,2.26,0,0,1-3.09,1c-3-1.09-6-2-9.27-3a7.06,7.06,0,0,1-.17.74c-1,3-2.07,6-3,9A1.55,1.55,0,0,1,27,16.76c-3-.05-5.94,0-8.9,0-1.1,0-1.46.38-1.45,1.45,0,2.86-.12,5.73,0,8.59A1.9,1.9,0,0,1,15,29c-2.7.81-5.34,1.79-8,2.6-1.11.34-1.35.85-1,1.94.9,2.66,1.64,5.38,2.55,8a1.91,1.91,0,0,1-.81,2.61C5.42,45.73,3.22,47.5.91,49.09c-1,.71-1,1.3-.33,2.26,1.74,2.33,3.37,4.75,5.1,7.1a1.49,1.49,0,0,1,0,2.07C3.9,62.94,2.2,65.43.4,67.86c-.61.81-.53,1.3.3,1.89C3.15,71.51,5.54,73.37,8,75.12a1.42,1.42,0,0,1,.63,1.93c-1,2.81-1.79,5.66-2.76,8.47-.38,1.08-.2,1.56.94,1.91,2.84.87,5.62,1.9,8.45,2.81a1.48,1.48,0,0,1,1.21,1.68c0,2.91.08,5.83,0,8.74,0,1.35.45,1.68,1.7,1.66,2.87,0,5.73.07,8.59.05a1.58,1.58,0,0,1,1.8,1.28c.8,2.64,1.79,5.22,2.54,7.87.43,1.48,1,1.93,2.53,1.37,2.59-1,5.27-1.63,7.88-2.53a1.66,1.66,0,0,1,2.22.73c1.67,2.39,3.47,4.69,5.13,7.09.68,1,1.22,1,2.13.3,2.24-1.68,4.62-3.21,6.83-4.94a1.94,1.94,0,0,1,2.83,0c2.23,1.72,4.59,3.26,6.82,5,1,.73,1.44.57,2.1-.36,1.64-2.35,3.44-4.58,5.07-6.94a1.8,1.8,0,0,1,2.47-.75c2.6.92,5.26,1.65,7.86,2.58,1.26.45,1.85.27,2.25-1.09.81-2.75,1.84-5.43,2.69-8.16a1.6,1.6,0,0,1,1.81-1.28c2.91,0,5.83-.08,8.74,0,1.3,0,1.59-.45,1.57-1.62,0-2.76.11-5.52,0-8.28-.05-1.42.48-2,1.8-2.37,2.7-.77,5.34-1.76,8-2.6,1-.3,1.21-.72.88-1.71-.92-2.76-1.69-5.58-2.64-8.33a1.81,1.81,0,0,1,.82-2.46c2.23-1.53,4.33-3.24,6.58-4.75,1.21-.81,1.48-1.44.5-2.67C116.41,65.77,115.09,63.57,113.5,61.58Z"/><path class="cls-2" d="M105.6,61.27a2,2,0,0,1,0-3c1.65-2.08,3.13-4.29,4.76-6.57-2.48-1.85-4.74-3.58-7.06-5.23a1.33,1.33,0,0,1-.57-1.78c.82-2.39,1.53-4.83,2.35-7.22.3-.88.1-1.27-.78-1.54-2.42-.77-4.8-1.64-7.22-2.4A1.33,1.33,0,0,1,96,32c0-2.49,0-5,0-7.47,0-1.08-.37-1.36-1.39-1.34-2.4,0-4.8-.07-7.2,0a1.57,1.57,0,0,1-1.81-1.29c-.66-2.26-1.52-4.46-2.16-6.73-.35-1.22-.9-1.39-2-1-2.06.72-4.18,1.25-6.22,2a2,2,0,0,1-2.86-.93c-1.46-2.21-3.11-4.3-4.72-6.52-.5.33-.87.56-1.23.81-2,1.43-4.07,2.86-6.07,4.33a1.17,1.17,0,0,1-1.65,0c-1.81-1.36-3.66-2.66-5.51-4-.56-.4-1.14-.77-1.77-1.18-1.68,2.26-3.31,4.37-4.82,6.56a1.91,1.91,0,0,1-2.63.88c-2.53-.93-5.13-1.68-7.92-2.57a5.7,5.7,0,0,1-.15.62c-.86,2.57-1.76,5.13-2.58,7.71A1.34,1.34,0,0,1,31.78,23c-2.53-.05-5.06,0-7.6,0-.93,0-1.24.32-1.23,1.23,0,2.45-.1,4.89,0,7.34a1.62,1.62,0,0,1-1.4,1.85c-2.3.69-4.55,1.52-6.85,2.22-.95.29-1.15.72-.84,1.65.77,2.28,1.4,4.59,2.18,6.86a1.63,1.63,0,0,1-.7,2.23c-2,1.35-3.86,2.85-5.83,4.22-.89.61-.9,1.1-.29,1.92,1.49,2,2.88,4.06,4.36,6.07a1.26,1.26,0,0,1,0,1.76c-1.54,2.07-3,4.2-4.53,6.27-.52.7-.45,1.11.26,1.61,2.09,1.5,4.13,3.09,6.23,4.59a1.22,1.22,0,0,1,.53,1.65c-.82,2.4-1.53,4.83-2.36,7.22-.32.93-.16,1.34.81,1.64,2.42.74,4.8,1.62,7.21,2.4a1.27,1.27,0,0,1,1,1.43c0,2.49.06,5,0,7.46,0,1.15.39,1.44,1.46,1.42,2.44,0,4.89.06,7.33,0a1.35,1.35,0,0,1,1.53,1.1c.69,2.25,1.53,4.46,2.18,6.72.36,1.26.84,1.64,2.16,1.16,2.21-.8,4.5-1.39,6.72-2.15a1.42,1.42,0,0,1,1.9.62c1.42,2,3,4,4.38,6,.58.84,1,.84,1.81.26,1.92-1.44,4-2.74,5.83-4.22a1.66,1.66,0,0,1,2.42,0c1.9,1.47,3.92,2.78,5.82,4.24.82.62,1.23.49,1.79-.31,1.41-2,2.94-3.91,4.33-5.92a1.55,1.55,0,0,1,2.11-.65c2.22.79,4.5,1.41,6.71,2.21,1.08.38,1.58.22,1.93-.94.69-2.34,1.56-4.63,2.3-7A1.34,1.34,0,0,1,87,96.25c2.49,0,5-.07,7.46,0,1.11,0,1.35-.38,1.34-1.38,0-2.35.1-4.71,0-7.06,0-1.22.41-1.71,1.54-2,2.3-.66,4.55-1.5,6.84-2.22.81-.26,1-.61.75-1.46-.79-2.36-1.44-4.76-2.25-7.11a1.54,1.54,0,0,1,.7-2.1c1.9-1.31,3.7-2.77,5.62-4.06,1-.69,1.26-1.22.42-2.28C108.09,64.85,107,63,105.6,61.27Z"/></svg>